<?xml version="1.0" encoding="UTF-8"?>
<svg width="42px" height="39px" viewBox="0 0 42 39" version="1.1" xmlns="http://www.w3.org/2000/svg" xmlns:xlink="http://www.w3.org/1999/xlink">
    <!-- Generator: Sketch 54.1 (76490) - https://sketchapp.com -->
    <title>休息</title>
    <desc>Created with Sketch.</desc>
    <g id="02.示例范例" stroke="none" stroke-width="1" fill="none" fill-rule="evenodd">
        <g id="1.小部件" transform="translate(-295.000000, -1021.000000)" fill="#999999" fill-rule="nonzero">
            <g id="1.2.周日程-无数据" transform="translate(0.000000, 708.000000)">
                <g id="休息" transform="translate(295.000000, 313.000000)">
                    <path d="M35.8859126,19.0243033 C34.4426449,19.0243033 32.4801493,19.9274452 31.9015215,20.899893 L31.9015215,18.6997894 C31.9015215,17.6162356 30.7783677,16.4996859 29.7014179,16.4996859 L2.20010355,16.4996859 C1.02084779,16.4996859 0,17.5810356 0,18.6997894 L0,25.3001081 C0,33.9960163 5.44745489,38.5007453 12.1005975,38.5007453 L19.8009559,38.5007453 C25.6070387,38.5007453 30.4043558,35.090582 31.9015534,29.7003072 C33.0126052,30.592449 34.2116649,30.9906689 35.8859446,30.9906689 C39.1520019,30.9906689 41.7987134,28.3109415 41.7987134,25.0085861 C41.7987134,21.7029288 39.1508879,19.0243073 35.8859446,19.0243073 L35.8859126,19.0243033 Z M29.7013979,25.3000921 C29.7013979,31.1996848 25.6323168,36.3006098 19.80092,36.3006098 L12.1005615,36.3006098 C6.26916478,36.3006098 2.20008359,31.1996848 2.20008359,25.3000921 L2.20008359,18.6997734 L29.7013979,18.6997734 L29.7013979,25.3000921 L29.7013979,25.3000921 Z M35.8859126,28.8323614 C33.7991111,28.8323614 32.1050314,27.1195797 32.1050314,25.0074801 C32.1050314,22.8942786 33.7980131,21.1814969 35.8859126,21.1814969 C37.9738122,21.1814969 39.6667939,22.8942786 39.6667939,25.0074801 C39.6656938,27.1195797 37.9727142,28.8323614 35.8859126,28.8323614 Z M7.06895053,7.83126765 C7.63437841,8.40329553 7.98419434,9.19313137 7.98419434,10.0665752 C7.98419434,10.940015 7.63437761,11.7309568 7.06895053,12.3029807 L7.07005057,12.3040808 L7.07005047,12.3040809 C6.86494182,12.5096103 6.74980597,12.7881527 6.74993534,13.0785167 L6.74993534,13.0785167 C6.36269186,13.5275682 6.41279516,14.2055155 6.86184505,14.5927594 C7.31089654,14.9800028 7.98884383,14.9298995 8.37608771,14.4808496 C8.54033266,14.2903904 8.63250426,14.0483161 8.63652575,13.7968494 L8.63652577,13.7968493 C9.60208609,12.794987 10.1401717,11.4568841 10.1369975,10.0654701 L10.1369974,10.0654873 C10.1398785,8.65501999 9.58696954,7.30020346 8.59803572,6.29450013 C8.03370983,5.72467225 7.68389391,4.93373441 7.68389391,4.06029458 C7.68389391,3.18685077 8.03371063,2.39701493 8.59913772,1.82388904 L8.5969376,1.822789 L8.59693765,1.82278895 C8.77744503,1.62151772 8.87698843,1.36050951 8.87635079,1.0901531 L8.8763508,1.09015092 C8.88000252,0.492341918 8.39833997,0.00476048714 7.80053097,0.00110713004 C7.80015292,0.00110482071 7.79977486,0.00110270943 7.79939681,0.00110079623 L7.79939683,0.00110079625 C7.5311402,0.000901548941 7.27267058,0.101853597 7.07556098,0.283814338 L7.0700607,0.289314617 L7.07006085,0.289314465 C6.07970961,1.29416734 5.52621203,2.64943905 5.52998517,4.06029369 C5.52998517,5.53216539 6.11851505,6.86432712 7.06895886,7.83127292 L7.06895053,7.83126765 Z M14.713211,7.83126765 C15.2786388,8.40329553 15.6295568,9.19313137 15.6295568,10.0665752 C15.6295568,10.940015 15.27974,11.7309568 14.713211,12.3029807 L14.714311,12.3040808 L14.7143111,12.3040807 C14.5092024,12.5096102 14.3940662,12.7881525 14.3941956,13.0785166 C14.3941956,13.6802464 14.8760195,14.1675683 15.4711453,14.1675683 L15.4711453,14.1675683 C15.7817062,14.1672785 16.0767961,14.0319785 16.2796831,13.7968508 L16.2796831,13.7968508 C17.2452434,12.7949885 17.783329,11.4568856 17.7801548,10.0654716 L17.7801548,10.0654888 C17.7830358,8.65502149 17.2301269,7.30020495 16.2411931,6.29450162 C15.6757652,5.72247374 15.3259493,4.9326379 15.3259493,4.05919408 C15.3259493,3.18575426 15.675766,2.39481243 16.2411931,1.82278854 L16.240093,1.8216885 L16.2400931,1.82168844 C16.4206005,1.62041722 16.5201439,1.35940901 16.5195062,1.0890526 L16.5195062,1.08905042 C16.523158,0.491241416 16.0414954,0.00365998526 15.4436864,6.62816362e-06 C15.4433084,4.31883867e-06 15.4429303,2.2075616e-06 15.4425522,2.94360378e-07 L15.4425523,2.94376499e-07 C15.1742956,-0.000198952932 14.915826,0.100753096 14.7187164,0.282713836 L14.7132161,0.288214075 L14.7132157,0.28821449 C13.7229683,1.29322308 13.1691553,2.64829915 13.1720421,4.05919372 L13.1720421,4.05916279 C13.1702855,5.47016117 13.7238986,6.82516537 14.7131958,7.831252 L14.713211,7.83126765 Z M22.4014714,7.83126765 C22.9668993,8.40329553 23.3178172,9.19313137 23.3178172,10.0665752 C23.3178172,10.940015 22.9680005,11.7309568 22.4014714,12.3029807 L22.4025714,12.3040808 L22.4025715,12.3040807 C22.1974628,12.5096102 22.0823266,12.7881525 22.082456,13.0785166 C22.082456,13.6802464 22.5642799,14.1675683 23.1594057,14.1675683 L23.1594057,14.1675683 C23.4702868,14.1673058 23.7657272,14.0320296 23.9690455,13.7968508 L23.9690456,13.7968508 C24.9342066,12.7948167 25.471885,11.4567298 25.4684193,10.0654715 L25.4684192,10.0654972 C25.4718973,8.65491409 24.9189024,7.29987796 23.9294655,6.29451002 L23.9305655,6.29451002 C23.3640396,5.72248214 23.0142197,4.93264629 23.0142197,4.05920248 C23.0142197,3.18576265 23.3640365,2.39482082 23.9305655,1.82279693 L23.9294655,1.82279693 L23.9294655,1.82279688 C24.1099729,1.62152565 24.2095163,1.36051744 24.2088787,1.09016103 L24.2088787,1.09015886 C24.2125304,0.492349851 23.7308679,0.00476842066 23.1330589,0.00111506356 C23.1326808,0.00111275424 23.1323028,0.00111064296 23.1319247,0.00110872976 L23.1319247,0.0011087298 C22.8633291,0.000849258795 22.6044958,0.101790859 22.4069909,0.283822272 L22.4014907,0.289322551 L22.4014908,0.289322439 C21.4111395,1.29417532 20.8576419,2.64944702 20.8614151,4.06030167 L20.8614149,4.0604606 C20.8594669,5.47096787 21.4127364,6.8255728 22.4015983,7.83139591 L22.4014714,7.83126765 Z" id="形状"></path>
                </g>
            </g>
        </g>
    </g>
</svg>